<svg width="128" height="96" viewBox="0 0 127.14 96.36" xmlns="http://www.w3.org/2000/svg" role="img" aria-label="Discord logo">
  <path d="M107.7 8.07A105.15 105.15 0 0 0 81.47.53a72.06 72.06 0 0 0-3.36 6.94A97.68 97.68 0 0 0 49 7.47a72.37 72.37 0 0 0-3.41-6.94A105.89 105.89 0 0 0 19.32 8.07C2.79 32.65-1.71 56.6.54 80.21a105.73 105.73 0 0 0 32.48 16.15 77.7 77.7 0 0 0 6.95-11.22A68.42 68.42 0 0 1 28.1 77.71a54.43 54.43 0 0 0 1.73-1.36 74.66 74.66 0 0 0 67.49 0q.86.72 1.73 1.36a68.18 68.18 0 0 1-11.87 7.43 77.32 77.32 0 0 0 7 11.22 105.27 105.27 0 0 0 32.52-16.15c2.66-26.86-4.55-50.63-19-72.66ZM42.69 65.69c-6.31 0-11.44-5.8-11.44-12.93s5-12.94 11.44-12.94 11.51 5.87 11.44 12.94c0 7.13-5 12.93-11.44 12.93m41.77 0c-6.31 0-11.44-5.8-11.44-12.93s5-12.94 11.44-12.94 11.51 5.87 11.44 12.94c0 7.13-5 12.93-11.44 12.93" fill="#5865F2"/>
</svg>
