<svg xmlns="http://www.w3.org/2000/svg" viewBox="0 0 1846 352">
  <defs>
    <linearGradient id="bg" x1="0%" y1="0%" x2="100%" y2="0%">
      <stop offset="0%" stop-color="#2e2e2e" stop-opacity="0.08" />
      <stop offset="50%" stop-color="#999" stop-opacity="0.08" />
      <stop offset="100%" stop-color="#2e2e2e" stop-opacity="0.08" />
    </linearGradient>
    <linearGradient id="red" x1="0%" y1="0%" x2="0%" y2="100%">
      <stop offset="0%" stop-color="#ff2222" />
      <stop offset="100%" stop-color="#b20000" />
    </linearGradient>
    <linearGradient id="blue" x1="0%" y1="0%" x2="0%" y2="100%">
      <stop offset="0%" stop-color="#3d8cff" />
      <stop offset="100%" stop-color="#0b3ea2" />
    </linearGradient>
    <linearGradient id="dark" x1="0%" y1="0%" x2="0%" y2="100%">
      <stop offset="0%" stop-color="#3d3d3d" />
      <stop offset="100%" stop-color="#0f0f0f" />
    </linearGradient>
    <linearGradient id="header" x1="0%" y1="0%" x2="0%" y2="100%">
      <stop offset="0%" stop-color="#0f3d23" />
      <stop offset="100%" stop-color="#0a1f12" />
    </linearGradient>
    <linearGradient id="glow" x1="0%" y1="0%" x2="0%" y2="100%">
      <stop offset="0%" stop-color="#ffffff" stop-opacity="0.82" />
      <stop offset="100%" stop-color="#ffffff" stop-opacity="0.08" />
    </linearGradient>
    <filter id="shadow" x="-10%" y="-20%" width="120%" height="160%">
      <feDropShadow dx="0" dy="10" stdDeviation="12" flood-color="#000" flood-opacity="0.45" />
    </filter>
    <g id="controller">
      <circle cx="0" cy="0" r="60" fill="#f7f7f7" opacity="0.22" />
      <rect x="-10" y="-38" width="20" height="76" rx="6" fill="#f7f7f7" opacity="0.22" />
      <rect x="-38" y="-10" width="76" height="20" rx="6" fill="#f7f7f7" opacity="0.22" />
      <circle cx="-80" cy="0" r="20" fill="#f7f7f7" opacity="0.18" />
      <circle cx="80" cy="0" r="20" fill="#f7f7f7" opacity="0.18" />
      <polygon points="0,-28 26,0 0,28 -26,0" fill="#f7f7f7" opacity="0.18" />
    </g>
  </defs>

  <rect width="1846" height="352" fill="url(#bg)" />

  <g filter="url(#shadow)">
    <polygon points="0,150 620,150 700,330 90,330" fill="url(#red)" />
    <polygon points="1226,150 1846,150 1746,330 1160,330" fill="url(#blue)" />
  </g>

  <g filter="url(#shadow)">
    <polygon points="560,150 1286,150 1234,220 1286,300 560,300 612,220" fill="url(#dark)" />
  </g>

  <g transform="translate(360 180)">
    <use href="#controller" x="0" y="0" />
  </g>
  <g transform="translate(930 180)">
    <use href="#controller" x="0" y="0" />
  </g>
  <g transform="translate(1520 180)">
    <use href="#controller" x="0" y="0" />
  </g>

  <g filter="url(#shadow)">
    <polygon points="690,118 940,118 870,332 640,332" fill="url(#red)" />
    <polygon points="940,118 1220,118 1300,332 870,332" fill="url(#blue)" />
    <path d="M936 118 L914 222 L952 184 L934 280 L972 244 L948 332 L990 332 L1060 118 Z" fill="#f7f7f7" />
  </g>

  <polygon points="620,150 700,330 90,330 20,152" fill="url(#glow)" opacity="0.12" />
  <polygon points="1226,150 1840,152 1746,330 1160,330" fill="url(#glow)" opacity="0.12" />

  <polygon points="560,0 1286,0 1212,142 634,142" fill="url(#header)" filter="url(#shadow)" />
  <text x="923" y="105" font-family="Impact, Bebas Neue, 'Anton', sans-serif" font-size="88" fill="#d86cf6" font-weight="800" text-anchor="middle" letter-spacing="2">
    SUPER SMASH!
  </text>

  <text x="310" y="260" font-family="Impact, Bebas Neue, 'Anton', sans-serif" font-size="96" fill="#ffffff" font-weight="800" letter-spacing="3">
    ASHRAF
  </text>
  <text x="1536" y="260" font-family="Impact, Bebas Neue, 'Anton', sans-serif" font-size="96" fill="#ffffff" font-weight="800" letter-spacing="3" text-anchor="middle">
    TARIQ
  </text>

  <text x="800" y="270" font-family="Impact, Bebas Neue, 'Anton', sans-serif" font-size="180" fill="#ffffff" font-weight="800" text-anchor="middle">
    0
  </text>
  <text x="1086" y="270" font-family="Impact, Bebas Neue, 'Anton', sans-serif" font-size="180" fill="#ffffff" font-weight="800" text-anchor="middle">
    6
  </text>
</svg>
