<svg xmlns="http://www.w3.org/2000/svg" xmlns:xlink="http://www.w3.org/1999/xlink" width="500" zoomAndPan="magnify" viewBox="0 0 375 374.999991" height="500" preserveAspectRatio="xMidYMid meet" version="1.0"><defs><clipPath id="5cfa04082b"><path d="M 14.039062 14.039062 L 360.960938 14.039062 L 360.960938 360.960938 L 14.039062 360.960938 Z M 14.039062 14.039062 " clip-rule="nonzero"/></clipPath><clipPath id="2b1d50f2c3"><path d="M 187.5 14.039062 C 91.699219 14.039062 14.039062 91.699219 14.039062 187.5 C 14.039062 283.300781 91.699219 360.960938 187.5 360.960938 C 283.300781 360.960938 360.960938 283.300781 360.960938 187.5 C 360.960938 91.699219 283.300781 14.039062 187.5 14.039062 Z M 187.5 14.039062 " clip-rule="nonzero"/></clipPath><clipPath id="608f6ae12f"><path d="M 0.0390625 0.0390625 L 346.960938 0.0390625 L 346.960938 346.960938 L 0.0390625 346.960938 Z M 0.0390625 0.0390625 " clip-rule="nonzero"/></clipPath><clipPath id="aef14c9812"><path d="M 173.5 0.0390625 C 77.699219 0.0390625 0.0390625 77.699219 0.0390625 173.5 C 0.0390625 269.300781 77.699219 346.960938 173.5 346.960938 C 269.300781 346.960938 346.960938 269.300781 346.960938 173.5 C 346.960938 77.699219 269.300781 0.0390625 173.5 0.0390625 Z M 173.5 0.0390625 " clip-rule="nonzero"/></clipPath><clipPath id="a4453a5fcd"><rect x="0" width="347" y="0" height="347"/></clipPath><clipPath id="3f7d283991"><path d="M 14.039062 14.039062 L 360.949219 14.039062 L 360.949219 360.949219 L 14.039062 360.949219 Z M 14.039062 14.039062 " clip-rule="nonzero"/></clipPath><clipPath id="cbe8513974"><path d="M 187.496094 14.039062 C 91.699219 14.039062 14.039062 91.699219 14.039062 187.496094 C 14.039062 283.292969 91.699219 360.949219 187.496094 360.949219 C 283.292969 360.949219 360.949219 283.292969 360.949219 187.496094 C 360.949219 91.699219 283.292969 14.039062 187.496094 14.039062 Z M 187.496094 14.039062 " clip-rule="nonzero"/></clipPath><clipPath id="a661ffac21"><path d="M 53.921875 84.3125 L 320.921875 84.3125 L 320.921875 290.5625 L 53.921875 290.5625 Z M 53.921875 84.3125 " clip-rule="nonzero"/></clipPath><clipPath id="ec7a1fce71"><path d="M 1.074219 0.429688 L 267.921875 0.429688 L 267.921875 206.5625 L 1.074219 206.5625 Z M 1.074219 0.429688 " clip-rule="nonzero"/></clipPath><clipPath id="6cb60ca6fe"><rect x="0" width="268" y="0" height="207"/></clipPath></defs><g clip-path="url(#5cfa04082b)"><g clip-path="url(#2b1d50f2c3)"><g transform="matrix(1, 0, 0, 1, 14, 14)"><g clip-path="url(#a4453a5fcd)"><g clip-path="url(#608f6ae12f)"><g clip-path="url(#aef14c9812)"><path fill="#000000" d="M 0.0390625 0.0390625 L 346.960938 0.0390625 L 346.960938 346.960938 L 0.0390625 346.960938 Z M 0.0390625 0.0390625 " fill-opacity="1" fill-rule="nonzero"/></g></g></g></g></g></g><g clip-path="url(#3f7d283991)"><g clip-path="url(#cbe8513974)"><path stroke-linecap="butt" transform="matrix(0.75, 0, 0, 0.75, 14.040287, 14.040283)" fill="none" stroke-linejoin="miter" d="M 231.274424 -0.00162733 C 103.545248 -0.00162733 -0.00163333 103.545254 -0.00163333 231.27443 C -0.00163333 359.003605 103.545248 462.545278 231.274424 462.545278 C 359.003599 462.545278 462.545272 359.003605 462.545272 231.27443 C 462.545272 103.545254 359.003599 -0.00162733 231.274424 -0.00162733 Z M 231.274424 -0.00162733 " stroke="#000000" stroke-width="8" stroke-opacity="1" stroke-miterlimit="4"/></g></g><g clip-path="url(#a661ffac21)"><g transform="matrix(1, 0, 0, 1, 53, 84)"><g clip-path="url(#6cb60ca6fe)"><g clip-path="url(#ec7a1fce71)"><path fill="#ffffff" d="M 112.171875 18.042969 L 225.226562 18.042969 L 177.171875 66.101562 C 170.648438 64.183594 163.820312 63.1875 156.832031 63.1875 L 131.03125 63.1875 C 128.582031 60.433594 125.015625 58.695312 121.039062 58.695312 C 113.664062 58.695312 107.683594 64.675781 107.683594 72.054688 C 107.683594 79.433594 113.664062 85.414062 121.039062 85.414062 C 125.015625 85.414062 128.582031 83.675781 131.03125 80.921875 L 156.832031 80.921875 C 186.613281 80.921875 210.84375 105.152344 210.84375 134.933594 C 210.84375 164.714844 186.613281 188.945312 156.832031 188.945312 L 43.777344 188.945312 L 91.832031 140.886719 C 98.355469 142.804688 105.1875 143.800781 112.171875 143.800781 L 137.972656 143.800781 C 140.421875 146.554688 143.988281 148.292969 147.964844 148.292969 C 155.339844 148.292969 161.324219 142.3125 161.324219 134.933594 C 161.324219 127.554688 155.339844 121.574219 147.964844 121.574219 C 143.988281 121.574219 140.421875 123.3125 137.972656 126.066406 L 112.171875 126.066406 C 82.390625 126.066406 58.160156 101.835938 58.160156 72.054688 C 58.160156 42.273438 82.390625 18.042969 112.171875 18.042969 Z M 74.503906 133.140625 L 0.964844 206.679688 L 156.832031 206.679688 C 175.996094 206.679688 194.015625 199.214844 207.5625 185.664062 C 221.113281 172.113281 228.578125 154.097656 228.578125 134.933594 C 228.578125 115.769531 221.113281 97.753906 207.5625 84.203125 C 203.570312 80.210938 199.1875 76.75 194.503906 73.847656 L 268.039062 0.3125 L 112.171875 0.3125 C 93.007812 0.3125 74.992188 7.773438 61.441406 21.324219 C 47.890625 34.875 40.425781 52.890625 40.425781 72.054688 C 40.425781 91.21875 47.890625 109.234375 61.441406 122.785156 C 65.433594 126.78125 69.816406 130.238281 74.503906 133.140625 " fill-opacity="1" fill-rule="nonzero"/></g></g></g></g></svg>