<svg xmlns="http://www.w3.org/2000/svg" xmlns:xlink="http://www.w3.org/1999/xlink" width="1920" zoomAndPan="magnify" viewBox="0 0 1440 404.99999" height="540" preserveAspectRatio="xMidYMid meet" version="1.0"><defs><clipPath id="3a45ff90f1"><path d="M 20.25 131 L 1419.75 131 L 1419.75 293.324219 L 20.25 293.324219 Z M 20.25 131 " clip-rule="nonzero"/></clipPath><clipPath id="ca761646fc"><path d="M 36 111.824219 L 1404 111.824219 L 1404 274 L 36 274 Z M 36 111.824219 " clip-rule="nonzero"/></clipPath><clipPath id="ebbae782d4"><path d="M 484 111.824219 L 959 111.824219 L 959 246 L 484 246 Z M 484 111.824219 " clip-rule="nonzero"/></clipPath><clipPath id="969b2cc446"><path d="M 686.398438 150.765625 L 753.898438 150.765625 L 753.898438 218 L 686.398438 218 Z M 686.398438 150.765625 " clip-rule="nonzero"/></clipPath><clipPath id="15026f6899"><path d="M 666 141.625 L 730 141.625 L 730 217 L 666 217 Z M 666 141.625 " clip-rule="nonzero"/></clipPath><clipPath id="3515f30f42"><path d="M 716 149 L 781 149 L 781 227.125 L 716 227.125 Z M 716 149 " clip-rule="nonzero"/></clipPath><clipPath id="cd1ab8fda0"><path d="M 775 188 L 814.3125 188 L 814.3125 195 L 775 195 Z M 775 188 " clip-rule="nonzero"/></clipPath><clipPath id="fea90c6cb7"><path d="M 626.0625 194 L 663 194 L 663 201 L 626.0625 201 Z M 626.0625 194 " clip-rule="nonzero"/></clipPath></defs><g clip-path="url(#3a45ff90f1)"><path fill="#e8e6e7" d="M 101.421875 293.324219 L 1338.578125 293.324219 C 1383.023438 293.324219 1419.453125 256.9375 1419.453125 212.382812 C 1419.453125 167.898438 1383.09375 131.441406 1338.578125 131.441406 L 101.421875 131.441406 C 56.976562 131.441406 20.546875 167.828125 20.546875 212.382812 C 20.546875 256.9375 56.90625 293.324219 101.421875 293.324219 Z M 101.421875 293.324219 " fill-opacity="1" fill-rule="evenodd"/></g><g clip-path="url(#ca761646fc)"><path fill="#2f2f2f" d="M 117.742188 273.707031 L 1322.257812 273.707031 C 1366.703125 273.707031 1403.132812 237.320312 1403.132812 192.765625 C 1403.132812 148.285156 1366.773438 111.824219 1322.257812 111.824219 L 117.742188 111.824219 C 73.296875 111.824219 36.867188 148.210938 36.867188 192.765625 C 36.867188 237.246094 73.296875 273.707031 117.742188 273.707031 Z M 117.742188 273.707031 " fill-opacity="1" fill-rule="evenodd"/></g><g clip-path="url(#ebbae782d4)"><path fill="#e8e6e7" d="M 958.25 111.824219 L 484.007812 111.824219 L 511.914062 180.371094 C 543.535156 257.957031 528.085938 244.90625 603.570312 244.90625 L 838.617188 244.90625 C 914.097656 244.90625 898.726562 257.957031 930.273438 180.371094 Z M 958.25 111.824219 " fill-opacity="1" fill-rule="evenodd"/></g><path fill="#d1174c" d="M 706.519531 178.183594 L 735.738281 178.183594 L 735.738281 193.058594 L 706.519531 193.058594 Z M 706.519531 178.183594 " fill-opacity="1" fill-rule="evenodd"/><g clip-path="url(#969b2cc446)"><path fill="#e8e6e7" d="M 686.398438 150.765625 L 753.585938 150.765625 L 753.585938 217.953125 L 686.398438 217.953125 Z M 686.398438 150.765625 " fill-opacity="1" fill-rule="nonzero"/></g><g clip-path="url(#15026f6899)"><path fill="#000000" d="M 666.964844 216.324219 L 668.53125 141.648438 L 691.191406 141.648438 L 686.40625 195.386719 L 707.476562 141.648438 L 729.609375 141.648438 L 694.863281 216.324219 L 666.964844 216.324219 " fill-opacity="1" fill-rule="nonzero"/></g><g clip-path="url(#3515f30f42)"><path fill="#000000" d="M 739.082031 203.222656 L 738.378906 206.109375 C 737.257812 211.585938 738.300781 214.449219 743.148438 214.449219 C 747.925781 214.449219 750.03125 211.398438 750.921875 207.726562 C 752.359375 201.796875 750.628906 199.402344 741.5625 193.871094 C 729.527344 186.707031 724.769531 181.769531 727.425781 170.828125 C 730.304688 158.976562 739.789062 149.851562 758.875 149.851562 C 780.011719 149.851562 782.300781 160.207031 779.863281 170.523438 L 779.292969 172.878906 L 759.042969 172.878906 L 759.664062 170.328125 C 760.714844 165.433594 760.371094 162.519531 755.90625 162.519531 C 752.167969 162.519531 750.144531 164.65625 749.175781 168.644531 C 748.152344 172.863281 749.070312 174.984375 757 179.492188 C 771.042969 187.539062 776.082031 192.84375 773.089844 205.171875 C 770.101562 217.484375 760.652344 227.085938 739.910156 227.085938 C 718.910156 227.085938 714.710938 217.933594 717.496094 205.640625 L 718.082031 203.222656 L 739.082031 203.222656 " fill-opacity="1" fill-rule="nonzero"/></g><path fill="#000000" d="M 713.25 188.828125 L 710.535156 194.777344 L 734.242188 194.777344 L 733.878906 194.554688 C 731.339844 192.960938 729.027344 191.035156 727 188.828125 L 713.25 188.828125 " fill-opacity="1" fill-rule="nonzero"/><g clip-path="url(#cd1ab8fda0)"><path fill="#000000" d="M 814.300781 188.828125 L 775.574219 188.828125 C 777.082031 190.609375 777.769531 192.480469 778.367188 194.777344 L 812.230469 194.777344 L 814.300781 188.828125 " fill-opacity="1" fill-rule="nonzero"/></g><path fill="#000000" d="M 794.597656 202.316406 L 778.601562 202.316406 C 778.339844 205.5625 777.144531 208.269531 777.144531 208.269531 L 792.527344 208.269531 L 794.597656 202.316406 " fill-opacity="1" fill-rule="nonzero"/><g clip-path="url(#fea90c6cb7)"><path fill="#000000" d="M 628.121094 194.167969 L 626.054688 200.121094 L 662.605469 200.121094 L 662.738281 194.167969 L 628.121094 194.167969 " fill-opacity="1" fill-rule="nonzero"/></g><path fill="#000000" d="M 650.933594 179.953125 L 648.863281 185.902344 L 662.863281 185.902344 L 662.996094 179.953125 L 650.933594 179.953125 " fill-opacity="1" fill-rule="nonzero"/></svg>