<svg xmlns="http://www.w3.org/2000/svg" xmlns:xlink="http://www.w3.org/1999/xlink" width="1920" zoomAndPan="magnify" viewBox="0 0 1440 404.99999" height="540" preserveAspectRatio="xMidYMid meet" version="1.0"><defs><clipPath id="a97200f1c9"><path d="M 8.90625 119.289062 L 1430.15625 119.289062 L 1430.15625 364.539062 L 8.90625 364.539062 Z M 8.90625 119.289062 " clip-rule="nonzero"/></clipPath><clipPath id="e17cd88e29"><path d="M 35 0.289062 L 1389 0.289062 L 1389 155 L 35 155 Z M 35 0.289062 " clip-rule="nonzero"/></clipPath><clipPath id="d14f4da361"><path d="M 1.175781 19 L 1422.15625 19 L 1422.15625 182 L 1.175781 182 Z M 1.175781 19 " clip-rule="nonzero"/></clipPath><clipPath id="5dbea6f34a"><path d="M 512 181 L 912 181 L 912 245.492188 L 512 245.492188 Z M 512 181 " clip-rule="nonzero"/></clipPath><clipPath id="b7061a9442"><rect x="0" width="1423" y="0" height="246"/></clipPath><clipPath id="4900cfb847"><path d="M 676.390625 169.992188 L 762.949219 169.992188 L 762.949219 268.199219 L 676.390625 268.199219 Z M 676.390625 169.992188 " clip-rule="nonzero"/></clipPath><clipPath id="18391f8b7b"><path d="M 0.390625 0.992188 L 86.949219 0.992188 L 86.949219 99.199219 L 0.390625 99.199219 Z M 0.390625 0.992188 " clip-rule="nonzero"/></clipPath><clipPath id="0782580187"><rect x="0" width="87" y="0" height="100"/></clipPath></defs><g clip-path="url(#a97200f1c9)"><g transform="matrix(1, 0, 0, 1, 8, 119)"><g clip-path="url(#b7061a9442)"><g clip-path="url(#e17cd88e29)"><path fill="#fd504d" d="M 659.347656 154.640625 L 1388.21875 154.640625 L 1330.484375 0.496094 L 93.121094 0.496094 L 35.425781 154.640625 Z M 659.347656 154.640625 " fill-opacity="1" fill-rule="nonzero"/></g><g clip-path="url(#d14f4da361)"><path fill="#042150" d="M 656.65625 181.847656 L 1422.425781 181.847656 L 1361.796875 19.914062 L 61.808594 19.914062 L 1.175781 181.847656 Z M 656.65625 181.847656 " fill-opacity="1" fill-rule="nonzero"/></g><g clip-path="url(#5dbea6f34a)"><path fill="#fd504d" d="M 560.183594 245.234375 L 863.417969 245.234375 L 911.328125 181.847656 L 512.277344 181.847656 Z M 560.183594 245.234375 " fill-opacity="1" fill-rule="nonzero"/></g><path fill="#fd504d" d="M 1008.492188 162.511719 L 962.378906 39.289062 L 461.269531 39.289062 L 415.113281 162.511719 Z M 1008.492188 162.511719 " fill-opacity="1" fill-rule="nonzero"/><path fill="#29abe2" d="M 1396.414062 162.511719 L 1350.257812 39.289062 L 1331.789062 39.289062 L 1377.941406 162.511719 Z M 1396.414062 162.511719 " fill-opacity="1" fill-rule="nonzero"/><path fill="#fd504d" d="M 27.148438 162.511719 L 73.265625 39.289062 L 91.777344 39.289062 L 45.621094 162.511719 Z M 27.148438 162.511719 " fill-opacity="1" fill-rule="nonzero"/><path fill="#ffffff" d="M 739.550781 107.9375 L 684.015625 107.9375 L 684.015625 93.863281 L 739.550781 93.863281 Z M 739.550781 107.9375 " fill-opacity="1" fill-rule="nonzero"/></g></g></g><g clip-path="url(#4900cfb847)"><g transform="matrix(1, 0, 0, 1, 676, 169)"><g clip-path="url(#0782580187)"><g clip-path="url(#18391f8b7b)"><path fill="#fd514d" d="M 0.390625 0.992188 L 86.949219 0.992188 L 86.949219 99.046875 L 0.390625 99.046875 Z M 0.390625 0.992188 " fill-opacity="1" fill-rule="nonzero"/></g></g></g></g></svg>