<svg xmlns="http://www.w3.org/2000/svg" xmlns:xlink="http://www.w3.org/1999/xlink" width="1920" zoomAndPan="magnify" viewBox="0 0 1440 404.99999" height="540" preserveAspectRatio="xMidYMid meet" version="1.0"><defs><clipPath id="489d1457eb"><path d="M 8.90625 119.289062 L 1430.15625 119.289062 L 1430.15625 364.539062 L 8.90625 364.539062 Z M 8.90625 119.289062 " clip-rule="nonzero"/></clipPath><clipPath id="9725253dd5"><path d="M 35 0.289062 L 1389 0.289062 L 1389 155 L 35 155 Z M 35 0.289062 " clip-rule="nonzero"/></clipPath><clipPath id="d107a8e02b"><path d="M 1.175781 19 L 1422.15625 19 L 1422.15625 182 L 1.175781 182 Z M 1.175781 19 " clip-rule="nonzero"/></clipPath><clipPath id="996f549a04"><path d="M 512 181 L 912 181 L 912 245.492188 L 512 245.492188 Z M 512 181 " clip-rule="nonzero"/></clipPath><clipPath id="9a25cfe6d5"><rect x="0" width="1423" y="0" height="246"/></clipPath><clipPath id="2bea03c100"><path d="M 686.066406 202.5 L 753.566406 202.5 L 753.566406 270 L 686.066406 270 Z M 686.066406 202.5 " clip-rule="nonzero"/></clipPath><clipPath id="560d156700"><path d="M 666 181.972656 L 730 181.972656 L 730 257 L 666 257 Z M 666 181.972656 " clip-rule="nonzero"/></clipPath><clipPath id="223177a705"><path d="M 716 190 L 781 190 L 781 267.472656 L 716 267.472656 Z M 716 190 " clip-rule="nonzero"/></clipPath><clipPath id="ae741c0717"><path d="M 626.0625 234 L 663 234 L 663 241 L 626.0625 241 Z M 626.0625 234 " clip-rule="nonzero"/></clipPath></defs><g clip-path="url(#489d1457eb)"><g transform="matrix(1, 0, 0, 1, 8, 119)"><g clip-path="url(#9a25cfe6d5)"><g clip-path="url(#9725253dd5)"><path fill="#fd504d" d="M 659.347656 154.640625 L 1388.21875 154.640625 L 1330.484375 0.496094 L 93.121094 0.496094 L 35.425781 154.640625 Z M 659.347656 154.640625 " fill-opacity="1" fill-rule="nonzero"/></g><g clip-path="url(#d107a8e02b)"><path fill="#042150" d="M 656.65625 181.847656 L 1422.425781 181.847656 L 1361.796875 19.914062 L 61.808594 19.914062 L 1.175781 181.847656 Z M 656.65625 181.847656 " fill-opacity="1" fill-rule="nonzero"/></g><g clip-path="url(#996f549a04)"><path fill="#fd504d" d="M 560.183594 245.234375 L 863.417969 245.234375 L 911.328125 181.847656 L 512.277344 181.847656 Z M 560.183594 245.234375 " fill-opacity="1" fill-rule="nonzero"/></g><path fill="#fd504d" d="M 1008.492188 162.511719 L 962.378906 39.289062 L 461.269531 39.289062 L 415.113281 162.511719 Z M 1008.492188 162.511719 " fill-opacity="1" fill-rule="nonzero"/><path fill="#29abe2" d="M 1396.414062 162.511719 L 1350.257812 39.289062 L 1331.789062 39.289062 L 1377.941406 162.511719 Z M 1396.414062 162.511719 " fill-opacity="1" fill-rule="nonzero"/><path fill="#fd504d" d="M 27.148438 162.511719 L 73.265625 39.289062 L 91.777344 39.289062 L 45.621094 162.511719 Z M 27.148438 162.511719 " fill-opacity="1" fill-rule="nonzero"/><path fill="#ffffff" d="M 739.550781 107.9375 L 684.015625 107.9375 L 684.015625 93.863281 L 739.550781 93.863281 Z M 739.550781 107.9375 " fill-opacity="1" fill-rule="nonzero"/></g></g></g><g clip-path="url(#2bea03c100)"><path fill="#f5504e" d="M 686.066406 202.5 L 753.253906 202.5 L 753.253906 269.6875 L 686.066406 269.6875 Z M 686.066406 202.5 " fill-opacity="1" fill-rule="nonzero"/></g><g clip-path="url(#560d156700)"><path fill="#ffffff" d="M 666.882812 256.648438 L 668.449219 181.992188 L 691.0625 181.992188 L 686.285156 235.71875 L 707.316406 181.992188 L 729.402344 181.992188 L 694.726562 256.648438 L 666.882812 256.648438 " fill-opacity="1" fill-rule="nonzero"/></g><g clip-path="url(#223177a705)"><path fill="#ffffff" d="M 738.855469 243.550781 L 738.15625 246.4375 C 737.035156 251.910156 738.078125 254.773438 742.914062 254.773438 C 747.683594 254.773438 749.785156 251.726562 750.671875 248.054688 C 752.109375 242.128906 750.382812 239.730469 741.332031 234.203125 C 729.320312 227.039062 724.574219 222.105469 727.226562 211.164062 C 730.097656 199.316406 739.5625 190.191406 758.609375 190.191406 C 779.707031 190.191406 781.988281 200.546875 779.558594 210.863281 L 778.988281 213.214844 L 758.777344 213.214844 L 759.394531 210.664062 C 760.445312 205.773438 760.105469 202.855469 755.648438 202.855469 C 751.917969 202.855469 749.898438 204.996094 748.929688 208.984375 C 747.910156 213.199219 748.828125 215.320312 756.742188 219.828125 C 770.757812 227.871094 775.785156 233.171875 772.796875 245.496094 C 769.8125 257.808594 760.382812 267.40625 739.683594 267.40625 C 718.722656 267.40625 714.535156 258.257812 717.3125 245.96875 L 717.898438 243.550781 L 738.855469 243.550781 " fill-opacity="1" fill-rule="nonzero"/></g><path fill="#ffffff" d="M 713.074219 229.160156 L 710.367188 235.109375 L 734.023438 235.109375 L 733.664062 234.882812 C 731.128906 233.292969 728.820312 231.367188 726.800781 229.160156 L 713.074219 229.160156 " fill-opacity="1" fill-rule="nonzero"/><path fill="#ffffff" d="M 813.925781 229.160156 L 775.273438 229.160156 C 776.78125 230.9375 777.46875 232.8125 778.066406 235.109375 L 811.859375 235.109375 L 813.925781 229.160156 " fill-opacity="1" fill-rule="nonzero"/><path fill="#ffffff" d="M 794.261719 242.644531 L 778.296875 242.644531 C 778.039062 245.890625 776.84375 248.59375 776.84375 248.59375 L 792.195312 248.59375 L 794.261719 242.644531 " fill-opacity="1" fill-rule="nonzero"/><g clip-path="url(#ae741c0717)"><path fill="#ffffff" d="M 628.117188 234.5 L 626.054688 240.449219 L 662.53125 240.449219 L 662.664062 234.5 L 628.117188 234.5 " fill-opacity="1" fill-rule="nonzero"/></g><path fill="#ffffff" d="M 650.882812 220.285156 L 648.816406 226.234375 L 662.789062 226.234375 L 662.921875 220.285156 L 650.882812 220.285156 " fill-opacity="1" fill-rule="nonzero"/></svg>