<svg xmlns="http://www.w3.org/2000/svg" xmlns:xlink="http://www.w3.org/1999/xlink" width="1920" zoomAndPan="magnify" viewBox="0 0 1440 404.99999" height="540" preserveAspectRatio="xMidYMid meet" version="1.0"><defs><clipPath id="9d9ae333f5"><path d="M 577 76.152344 L 867 76.152344 L 867 147 L 577 147 Z M 577 76.152344 " clip-rule="nonzero"/></clipPath><clipPath id="2bd1fc3375"><path d="M 15 178 L 1425 178 L 1425 328.902344 L 15 328.902344 Z M 15 178 " clip-rule="nonzero"/></clipPath><clipPath id="6883f38c1e"><path d="M 670.285156 169.335938 L 770 169.335938 L 770 259.570312 L 670.285156 259.570312 Z M 670.285156 169.335938 " clip-rule="nonzero"/></clipPath><clipPath id="21c8ef1160"><path d="M 689.035156 169.335938 L 750.964844 169.335938 C 761.320312 169.335938 769.714844 177.734375 769.714844 188.085938 L 769.714844 240.820312 C 769.714844 251.175781 761.320312 259.570312 750.964844 259.570312 L 689.035156 259.570312 C 678.679688 259.570312 670.285156 251.175781 670.285156 240.820312 L 670.285156 188.085938 C 670.285156 177.734375 678.679688 169.335938 689.035156 169.335938 Z M 689.035156 169.335938 " clip-rule="nonzero"/></clipPath><clipPath id="4abf262f11"><path d="M 0.285156 0.335938 L 99.921875 0.335938 L 99.921875 90.570312 L 0.285156 90.570312 Z M 0.285156 0.335938 " clip-rule="nonzero"/></clipPath><clipPath id="300391c84a"><path d="M 19.035156 0.335938 L 80.964844 0.335938 C 91.320312 0.335938 99.714844 8.734375 99.714844 19.085938 L 99.714844 71.820312 C 99.714844 82.175781 91.320312 90.570312 80.964844 90.570312 L 19.035156 90.570312 C 8.679688 90.570312 0.285156 82.175781 0.285156 71.820312 L 0.285156 19.085938 C 0.285156 8.734375 8.679688 0.335938 19.035156 0.335938 Z M 19.035156 0.335938 " clip-rule="nonzero"/></clipPath><clipPath id="4938c5967b"><rect x="0" width="100" y="0" height="91"/></clipPath><clipPath id="704e4942b1"><path d="M 666 167.257812 L 730 167.257812 L 730 242 L 666 242 Z M 666 167.257812 " clip-rule="nonzero"/></clipPath><clipPath id="ac184667db"><path d="M 716 175 L 781 175 L 781 252.757812 L 716 252.757812 Z M 716 175 " clip-rule="nonzero"/></clipPath><clipPath id="cbd1f84b66"><path d="M 775 214 L 814.3125 214 L 814.3125 221 L 775 221 Z M 775 214 " clip-rule="nonzero"/></clipPath><clipPath id="9be4bf3957"><path d="M 626.0625 219 L 663 219 L 663 226 L 626.0625 226 Z M 626.0625 219 " clip-rule="nonzero"/></clipPath></defs><g clip-path="url(#9d9ae333f5)"><path fill="#f0f0f2" d="M 577.871094 146.605469 L 866.296875 146.605469 L 833.417969 76.152344 C 538.460938 76.152344 906.222656 76.152344 610.75 76.152344 Z M 577.871094 146.605469 " fill-opacity="1" fill-rule="evenodd"/></g><g clip-path="url(#2bd1fc3375)"><path fill="#00a5d5" d="M 15.628906 178.601562 C 386.25 178.601562 1054.101562 178.601562 1424.722656 178.601562 L 1354.269531 328.902344 C 1030.617188 328.902344 409.734375 328.902344 86.082031 328.902344 Z M 15.628906 178.601562 " fill-opacity="1" fill-rule="evenodd"/></g><path fill="#f0f0f2" d="M 71.992188 146.605469 C 443.054688 146.605469 1001.554688 146.605469 1372.101562 146.605469 L 1301.648438 296.90625 C 977.996094 296.90625 466.539062 296.90625 142.449219 296.90625 Z M 71.992188 146.605469 " fill-opacity="1" fill-rule="evenodd"/><path fill="#00a5d5" d="M 532.296875 146.605469 C 870.480469 146.605469 573.617188 146.605469 911.800781 146.605469 L 847.4375 283.769531 C 552.480469 283.769531 892.058594 283.769531 596.585938 283.769531 Z M 532.296875 146.605469 " fill-opacity="1" fill-rule="evenodd"/><path fill="#f0f0f2" d="M 708.433594 208.179688 L 735.660156 208.179688 L 735.660156 221.753906 L 708.433594 221.753906 Z M 708.433594 208.179688 " fill-opacity="1" fill-rule="evenodd"/><g clip-path="url(#6883f38c1e)"><g clip-path="url(#21c8ef1160)"><g transform="matrix(1, 0, 0, 1, 670, 169)"><g clip-path="url(#4938c5967b)"><g clip-path="url(#4abf262f11)"><g clip-path="url(#300391c84a)"><path fill="#37a5d5" d="M 0.285156 0.335938 L 99.683594 0.335938 L 99.683594 90.570312 L 0.285156 90.570312 Z M 0.285156 0.335938 " fill-opacity="1" fill-rule="nonzero"/></g></g></g></g></g></g><g clip-path="url(#704e4942b1)"><path fill="#000000" d="M 666.964844 241.953125 L 668.53125 167.277344 L 691.191406 167.277344 L 686.40625 221.019531 L 707.476562 167.277344 L 729.609375 167.277344 L 694.863281 241.953125 L 666.964844 241.953125 " fill-opacity="1" fill-rule="nonzero"/></g><g clip-path="url(#ac184667db)"><path fill="#000000" d="M 739.082031 228.855469 L 738.378906 231.742188 C 737.257812 237.21875 738.300781 240.082031 743.148438 240.082031 C 747.925781 240.082031 750.03125 237.03125 750.921875 233.359375 C 752.359375 227.429688 750.628906 225.035156 741.5625 219.503906 C 729.527344 212.339844 724.769531 207.402344 727.425781 196.457031 C 730.304688 184.609375 739.789062 175.484375 758.875 175.484375 C 780.011719 175.484375 782.300781 185.839844 779.863281 196.15625 L 779.292969 198.507812 L 759.042969 198.507812 L 759.664062 195.960938 C 760.714844 191.066406 760.371094 188.148438 755.90625 188.148438 C 752.167969 188.148438 750.144531 190.289062 749.175781 194.277344 C 748.152344 198.496094 749.070312 200.617188 757 205.125 C 771.042969 213.171875 776.082031 218.472656 773.089844 230.800781 C 770.101562 243.117188 760.652344 252.714844 739.910156 252.714844 C 718.910156 252.714844 714.710938 243.566406 717.496094 231.273438 L 718.082031 228.855469 L 739.082031 228.855469 " fill-opacity="1" fill-rule="nonzero"/></g><path fill="#000000" d="M 713.25 214.460938 L 710.535156 220.410156 L 734.242188 220.410156 L 733.878906 220.1875 C 731.339844 218.59375 729.027344 216.667969 727 214.460938 L 713.25 214.460938 " fill-opacity="1" fill-rule="nonzero"/><g clip-path="url(#cbd1f84b66)"><path fill="#000000" d="M 814.300781 214.460938 L 775.574219 214.460938 C 777.082031 216.238281 777.769531 218.113281 778.367188 220.410156 L 812.230469 220.410156 L 814.300781 214.460938 " fill-opacity="1" fill-rule="nonzero"/></g><path fill="#000000" d="M 794.597656 227.949219 L 778.601562 227.949219 C 778.339844 231.195312 777.144531 233.902344 777.144531 233.902344 L 792.527344 233.902344 L 794.597656 227.949219 " fill-opacity="1" fill-rule="nonzero"/><g clip-path="url(#9be4bf3957)"><path fill="#000000" d="M 628.121094 219.800781 L 626.054688 225.75 L 662.605469 225.75 L 662.738281 219.800781 L 628.121094 219.800781 " fill-opacity="1" fill-rule="nonzero"/></g><path fill="#000000" d="M 650.933594 205.585938 L 648.863281 211.535156 L 662.863281 211.535156 L 662.996094 205.585938 L 650.933594 205.585938 " fill-opacity="1" fill-rule="nonzero"/></svg>