<svg xmlns="http://www.w3.org/2000/svg" xmlns:xlink="http://www.w3.org/1999/xlink" width="1920" zoomAndPan="magnify" viewBox="0 0 1440 404.99999" height="540" preserveAspectRatio="xMidYMid meet" version="1.0"><defs><clipPath id="0982512858"><path d="M 20.25 131 L 1419.75 131 L 1419.75 293.324219 L 20.25 293.324219 Z M 20.25 131 " clip-rule="nonzero"/></clipPath><clipPath id="ff202f347d"><path d="M 36 111.824219 L 1404 111.824219 L 1404 274 L 36 274 Z M 36 111.824219 " clip-rule="nonzero"/></clipPath><clipPath id="9c7a5a6dfa"><path d="M 484 111.824219 L 959 111.824219 L 959 246 L 484 246 Z M 484 111.824219 " clip-rule="nonzero"/></clipPath><clipPath id="f352d9d5f7"><path d="M 686.398438 150.765625 L 753.898438 150.765625 L 753.898438 218 L 686.398438 218 Z M 686.398438 150.765625 " clip-rule="nonzero"/></clipPath></defs><g clip-path="url(#0982512858)"><path fill="#e8e6e7" d="M 101.421875 293.324219 L 1338.578125 293.324219 C 1383.023438 293.324219 1419.453125 256.9375 1419.453125 212.382812 C 1419.453125 167.898438 1383.09375 131.441406 1338.578125 131.441406 L 101.421875 131.441406 C 56.976562 131.441406 20.546875 167.828125 20.546875 212.382812 C 20.546875 256.9375 56.90625 293.324219 101.421875 293.324219 Z M 101.421875 293.324219 " fill-opacity="1" fill-rule="evenodd"/></g><g clip-path="url(#ff202f347d)"><path fill="#2f2f2f" d="M 117.742188 273.707031 L 1322.257812 273.707031 C 1366.703125 273.707031 1403.132812 237.320312 1403.132812 192.765625 C 1403.132812 148.285156 1366.773438 111.824219 1322.257812 111.824219 L 117.742188 111.824219 C 73.296875 111.824219 36.867188 148.210938 36.867188 192.765625 C 36.867188 237.246094 73.296875 273.707031 117.742188 273.707031 Z M 117.742188 273.707031 " fill-opacity="1" fill-rule="evenodd"/></g><g clip-path="url(#9c7a5a6dfa)"><path fill="#e8e6e7" d="M 958.25 111.824219 L 484.007812 111.824219 L 511.914062 180.371094 C 543.535156 257.957031 528.085938 244.90625 603.570312 244.90625 L 838.617188 244.90625 C 914.097656 244.90625 898.726562 257.957031 930.273438 180.371094 Z M 958.25 111.824219 " fill-opacity="1" fill-rule="evenodd"/></g><path fill="#d1174c" d="M 706.519531 178.183594 L 735.738281 178.183594 L 735.738281 193.058594 L 706.519531 193.058594 Z M 706.519531 178.183594 " fill-opacity="1" fill-rule="evenodd"/><g clip-path="url(#f352d9d5f7)"><path fill="#e8e6e7" d="M 686.398438 150.765625 L 753.585938 150.765625 L 753.585938 217.953125 L 686.398438 217.953125 Z M 686.398438 150.765625 " fill-opacity="1" fill-rule="nonzero"/></g></svg>