<svg xmlns="http://www.w3.org/2000/svg" xmlns:xlink="http://www.w3.org/1999/xlink" width="1920" zoomAndPan="magnify" viewBox="0 0 1440 404.99999" height="540" preserveAspectRatio="xMidYMid meet" version="1.0"><defs><clipPath id="76c7645c58"><path d="M 577 76.152344 L 867 76.152344 L 867 147 L 577 147 Z M 577 76.152344 " clip-rule="nonzero"/></clipPath><clipPath id="67374f38c7"><path d="M 15 178 L 1425 178 L 1425 328.902344 L 15 328.902344 Z M 15 178 " clip-rule="nonzero"/></clipPath><clipPath id="e2ae58a255"><path d="M 670.285156 169.335938 L 770 169.335938 L 770 259.570312 L 670.285156 259.570312 Z M 670.285156 169.335938 " clip-rule="nonzero"/></clipPath><clipPath id="169c701177"><path d="M 689.035156 169.335938 L 750.964844 169.335938 C 761.320312 169.335938 769.714844 177.734375 769.714844 188.085938 L 769.714844 240.820312 C 769.714844 251.175781 761.320312 259.570312 750.964844 259.570312 L 689.035156 259.570312 C 678.679688 259.570312 670.285156 251.175781 670.285156 240.820312 L 670.285156 188.085938 C 670.285156 177.734375 678.679688 169.335938 689.035156 169.335938 Z M 689.035156 169.335938 " clip-rule="nonzero"/></clipPath><clipPath id="d3309a7df4"><path d="M 0.285156 0.335938 L 99.921875 0.335938 L 99.921875 90.570312 L 0.285156 90.570312 Z M 0.285156 0.335938 " clip-rule="nonzero"/></clipPath><clipPath id="2c62d67ec3"><path d="M 19.035156 0.335938 L 80.964844 0.335938 C 91.320312 0.335938 99.714844 8.734375 99.714844 19.085938 L 99.714844 71.820312 C 99.714844 82.175781 91.320312 90.570312 80.964844 90.570312 L 19.035156 90.570312 C 8.679688 90.570312 0.285156 82.175781 0.285156 71.820312 L 0.285156 19.085938 C 0.285156 8.734375 8.679688 0.335938 19.035156 0.335938 Z M 19.035156 0.335938 " clip-rule="nonzero"/></clipPath><clipPath id="b6a62a8f38"><rect x="0" width="100" y="0" height="91"/></clipPath></defs><g clip-path="url(#76c7645c58)"><path fill="#f0f0f2" d="M 577.871094 146.605469 L 866.296875 146.605469 L 833.417969 76.152344 C 538.460938 76.152344 906.222656 76.152344 610.75 76.152344 Z M 577.871094 146.605469 " fill-opacity="1" fill-rule="evenodd"/></g><g clip-path="url(#67374f38c7)"><path fill="#00a5d5" d="M 15.628906 178.601562 C 386.25 178.601562 1054.101562 178.601562 1424.722656 178.601562 L 1354.269531 328.902344 C 1030.617188 328.902344 409.734375 328.902344 86.082031 328.902344 Z M 15.628906 178.601562 " fill-opacity="1" fill-rule="evenodd"/></g><path fill="#f0f0f2" d="M 71.992188 146.605469 C 443.054688 146.605469 1001.554688 146.605469 1372.101562 146.605469 L 1301.648438 296.90625 C 977.996094 296.90625 466.539062 296.90625 142.449219 296.90625 Z M 71.992188 146.605469 " fill-opacity="1" fill-rule="evenodd"/><path fill="#00a5d5" d="M 532.296875 146.605469 C 870.480469 146.605469 573.617188 146.605469 911.800781 146.605469 L 847.4375 283.769531 C 552.480469 283.769531 892.058594 283.769531 596.585938 283.769531 Z M 532.296875 146.605469 " fill-opacity="1" fill-rule="evenodd"/><path fill="#f0f0f2" d="M 708.433594 208.179688 L 735.660156 208.179688 L 735.660156 221.753906 L 708.433594 221.753906 Z M 708.433594 208.179688 " fill-opacity="1" fill-rule="evenodd"/><g clip-path="url(#e2ae58a255)"><g clip-path="url(#169c701177)"><g transform="matrix(1, 0, 0, 1, 670, 169)"><g clip-path="url(#b6a62a8f38)"><g clip-path="url(#d3309a7df4)"><g clip-path="url(#2c62d67ec3)"><path fill="#37a5d5" d="M 0.285156 0.335938 L 99.683594 0.335938 L 99.683594 90.570312 L 0.285156 90.570312 Z M 0.285156 0.335938 " fill-opacity="1" fill-rule="nonzero"/></g></g></g></g></g></g></svg>