<svg xmlns="http://www.w3.org/2000/svg" xmlns:xlink="http://www.w3.org/1999/xlink" width="1920" zoomAndPan="magnify" viewBox="0 0 1440 809.999993" height="1080" preserveAspectRatio="xMidYMid meet" version="1.0"><defs><clipPath id="959909fed3"><path d="M 5.117188 281.683594 L 1434.617188 281.683594 L 1434.617188 528.433594 L 5.117188 528.433594 Z M 5.117188 281.683594 " clip-rule="nonzero"/></clipPath><clipPath id="09393fcbd2"><path d="M 34 0.683594 L 1396 0.683594 L 1396 156 L 34 156 Z M 34 0.683594 " clip-rule="nonzero"/></clipPath><clipPath id="147546b6b3"><path d="M 0.375 20 L 1429.617188 20 L 1429.617188 184 L 0.375 184 Z M 0.375 20 " clip-rule="nonzero"/></clipPath><clipPath id="eb484dd626"><path d="M 514 183 L 916 183 L 916 247.316406 L 514 247.316406 Z M 514 183 " clip-rule="nonzero"/></clipPath><clipPath id="4fab2b8280"><rect x="0" width="1430" y="0" height="248"/></clipPath><clipPath id="dc23ea8030"><path d="M 671.925781 340.59375 L 767.925781 340.59375 L 767.925781 436.59375 L 671.925781 436.59375 Z M 671.925781 340.59375 " clip-rule="nonzero"/></clipPath><clipPath id="deffbd01ab"><path d="M 657 333.574219 L 732 333.574219 L 732 422 L 657 422 Z M 657 333.574219 " clip-rule="nonzero"/></clipPath><clipPath id="6784587b57"><path d="M 784 388 L 830.425781 388 L 830.425781 396 L 784 396 Z M 784 388 " clip-rule="nonzero"/></clipPath><clipPath id="99306a59f2"><path d="M 609.925781 395 L 653 395 L 653 403 L 609.925781 403 Z M 609.925781 395 " clip-rule="nonzero"/></clipPath></defs><g clip-path="url(#959909fed3)"><g transform="matrix(1, 0, 0, 1, 5, 281)"><g clip-path="url(#4fab2b8280)"><g clip-path="url(#09393fcbd2)"><path fill="#fd504d" d="M 662.363281 155.910156 L 1395.46875 155.910156 L 1337.394531 0.828125 L 92.851562 0.828125 L 34.824219 155.910156 Z M 662.363281 155.910156 " fill-opacity="1" fill-rule="nonzero"/></g><g clip-path="url(#147546b6b3)"><path fill="#042150" d="M 659.65625 183.28125 L 1429.875 183.28125 L 1368.890625 20.363281 L 61.355469 20.363281 L 0.375 183.28125 Z M 659.65625 183.28125 " fill-opacity="1" fill-rule="nonzero"/></g><g clip-path="url(#eb484dd626)"><path fill="#fd504d" d="M 562.628906 247.050781 L 867.621094 247.050781 L 915.808594 183.28125 L 514.441406 183.28125 Z M 562.628906 247.050781 " fill-opacity="1" fill-rule="nonzero"/></g><path fill="#fd504d" d="M 1013.535156 163.828125 L 967.152344 39.855469 L 463.136719 39.855469 L 416.710938 163.828125 Z M 1013.535156 163.828125 " fill-opacity="1" fill-rule="nonzero"/><path fill="#29abe2" d="M 1403.710938 163.828125 L 1357.285156 39.855469 L 1338.707031 39.855469 L 1385.132812 163.828125 Z M 1403.710938 163.828125 " fill-opacity="1" fill-rule="nonzero"/><path fill="#fd504d" d="M 26.5 163.828125 L 72.882812 39.855469 L 91.5 39.855469 L 45.074219 163.828125 Z M 26.5 163.828125 " fill-opacity="1" fill-rule="nonzero"/><path fill="#ffffff" d="M 743.03125 108.921875 L 687.175781 108.921875 L 687.175781 94.761719 L 743.03125 94.761719 Z M 743.03125 108.921875 " fill-opacity="1" fill-rule="nonzero"/></g></g></g><g clip-path="url(#dc23ea8030)"><path fill="#f5504e" d="M 671.925781 340.59375 L 768.054688 340.59375 L 768.054688 436.722656 L 671.925781 436.722656 Z M 671.925781 340.59375 " fill-opacity="1" fill-rule="nonzero"/></g><g clip-path="url(#deffbd01ab)"><path fill="#ffffff" d="M 657.757812 421.078125 L 659.589844 333.597656 L 686.089844 333.597656 L 680.492188 396.554688 L 705.136719 333.597656 L 731.015625 333.597656 L 690.386719 421.078125 L 657.757812 421.078125 " fill-opacity="1" fill-rule="nonzero"/></g><path fill="#ffffff" d="M 742.09375 405.734375 L 741.273438 409.117188 C 739.960938 415.53125 741.183594 418.882812 746.851562 418.882812 C 752.441406 418.882812 754.898438 415.3125 755.941406 411.011719 C 757.625 404.066406 755.601562 401.257812 744.996094 394.777344 C 730.921875 386.386719 725.359375 380.601562 728.464844 367.78125 C 731.828125 353.902344 742.921875 343.210938 765.242188 343.210938 C 789.960938 343.210938 792.636719 355.34375 789.789062 367.429688 L 789.121094 370.183594 L 765.441406 370.183594 L 766.164062 367.199219 C 767.390625 361.464844 766.992188 358.050781 761.769531 358.050781 C 757.398438 358.050781 755.03125 360.554688 753.898438 365.226562 C 752.703125 370.167969 753.777344 372.65625 763.050781 377.9375 C 779.472656 387.363281 785.367188 393.574219 781.867188 408.015625 C 778.371094 422.441406 767.320312 433.6875 743.066406 433.6875 C 718.503906 433.6875 713.59375 422.964844 716.851562 408.566406 L 717.535156 405.734375 L 742.09375 405.734375 " fill-opacity="1" fill-rule="nonzero"/><path fill="#ffffff" d="M 711.886719 388.871094 L 708.710938 395.84375 L 736.433594 395.84375 L 736.011719 395.578125 C 733.042969 393.714844 730.335938 391.457031 727.96875 388.871094 L 711.886719 388.871094 " fill-opacity="1" fill-rule="nonzero"/><g clip-path="url(#6784587b57)"><path fill="#ffffff" d="M 830.058594 388.871094 L 784.769531 388.871094 C 786.535156 390.957031 787.339844 393.152344 788.039062 395.84375 L 827.640625 395.84375 L 830.058594 388.871094 " fill-opacity="1" fill-rule="nonzero"/></g><path fill="#ffffff" d="M 807.015625 404.671875 L 788.308594 404.671875 C 788.007812 408.472656 786.609375 411.644531 786.609375 411.644531 L 804.59375 411.644531 L 807.015625 404.671875 " fill-opacity="1" fill-rule="nonzero"/><g clip-path="url(#99306a59f2)"><path fill="#ffffff" d="M 612.335938 395.125 L 609.914062 402.097656 L 652.660156 402.097656 L 652.816406 395.125 L 612.335938 395.125 " fill-opacity="1" fill-rule="nonzero"/></g><path fill="#ffffff" d="M 639.007812 378.472656 L 636.589844 385.445312 L 652.960938 385.445312 L 653.117188 378.472656 L 639.007812 378.472656 " fill-opacity="1" fill-rule="nonzero"/></svg>